<?xml version="1.0" encoding="utf-8"?>
<!-- Generator: Adobe Illustrator 17.0.2, SVG Export Plug-In . SVG Version: 6.00 Build 0)  -->
<!DOCTYPE svg PUBLIC "-//W3C//DTD SVG 1.1//EN" "http://www.w3.org/Graphics/SVG/1.1/DTD/svg11.dtd">
<svg version="1.1" id="Layer_1" xmlns="http://www.w3.org/2000/svg" xmlns:xlink="http://www.w3.org/1999/xlink" x="0px" y="0px"
	 width="700px" height="700px" viewBox="0 0 700 700" enable-background="new 0 0 700 700" xml:space="preserve">
<g>
	<path fill="#E4FC03" d="M75.602,444.64v-1.68v11.199c0,3.359,1.68,6.719,5.602,10.078l97.441,81.762
		c10.078,8.398,31.359,11.199,47.602,5.602l226.24-79.52c10.078-3.359,15.68-9.52,15.68-15.68v-9.52c0,6.16-5.602,12.32-15.68,15.68
		l-226.8,79.516c-15.68,5.602-36.961,3.359-47.602-5.602l-96.879-81.758c-3.918-2.797-5.598-6.16-5.598-10.078 M75.608,423.921
		v-5.039V436.8c0,3.359,1.68,6.719,5.602,10.078l97.441,81.762c10.078,8.398,31.359,11.199,47.602,5.602l226.24-79.52
		c10.078-3.359,15.68-9.52,15.68-15.121v6.719v-19.602c0,6.16-5.602,11.762-15.68,15.68l-226.8,78.402
		c-15.68,5.602-36.961,3.359-47.602-5.602L81.211,433.44c-3.918-2.801-5.598-6.16-5.598-9.52 M75.614,402.639v-8.398v21.281
		c0,3.359,1.68,6.719,5.602,10.078l97.441,81.762c10.078,8.398,31.359,11.199,47.602,5.602l226.24-79.52
		c10.078-3.359,15.68-9.52,15.68-15.121v2.801v-15.68c0,6.16-5.602,11.762-15.68,15.121l-226.8,78.953
		c-15.68,5.602-36.961,3.359-47.602-5.602l-96.879-81.758c-3.918-2.801-5.598-6.16-5.598-9.52 M75.62,381.357v-11.762v24.641
		c0,3.359,1.68,6.719,5.602,10.078l97.441,81.762c10.078,8.398,31.359,11.199,47.602,5.602l226.24-79.52
		c10.078-3.359,15.68-9.52,15.68-15.121v-12.879c0,6.16-5.602,11.762-15.68,15.121l-226.8,78.957
		c-15.68,5.602-36.961,3.359-47.602-5.602l-96.879-81.758c-3.918-2.801-5.598-6.16-5.598-9.52 M177.546,451.919l-96.879-81.203
		c-1.68-1.68-3.359-3.359-5.039-5.039v7.281c0,3.359,1.68,6.719,5.602,10.078l97.441,81.762
		c10.078,8.398,31.359,11.199,47.602,5.602l226.24-79.52c10.078-3.359,15.121-9.52,15.68-15.121v-8.398
		c-3.922,5.039-9.52,9.52-16.801,12.32l-226.8,78.957c-5.602,1.68-11.199,2.801-17.359,2.801c-11.758,0-22.398-3.363-29.68-9.52
		 M591.392,285.598c0,8.398-8.961,14-16.238,10.641l-28.559-12.879c-1.68-0.559-3.359-1.121-5.602-1.121
		c-0.559,0-40.879-1.121-86.238-5.039c-6.719-0.559-11.762-7.281-10.078-14l13.441-61.602c1.121-3.922-0.559-8.398-3.922-11.199
		l-1.121-1.121c-5.602-5.039-12.879-10.641-20.719-10.641c-4.48,0-8.398,1.68-11.762,4.48c-19.039,16.801-31.359,20.16-38.078,20.16
		c-2.801,0-5.039-0.559-6.719-1.68l41.441-53.199c1.68-1.68,3.359-3.359,5.602-3.922l29.121-8.961c2.238-0.559,3.922-0.559,6.16,0
		l76.711,20.16c0.559,0,1.121,0.559,1.68,0.559l48.16,21.84c3.922,1.68,6.719,6.16,6.719,10.641L591.392,285.598z M455.312,76.158
		l-7.84,26.879c-1.121,3.922-3.922,6.719-7.84,7.84l-33.602,10.078c-2.238,0.559-4.48,2.238-5.602,3.922l-56,71.121
		c-2.801,3.359-3.359,8.398-1.121,12.32l0.559,1.121c3.922,8.398,16.801,21.84,38.078,21.84c7.281,0,15.121-1.68,22.961-5.039
		c8.398-3.359,17.359,3.922,15.68,13.441l-16.801,79.52c-0.559,3.359-1.68,5.039-6.16,5.039h-1.68l-162.96-34.719
		c-2.238-0.559-6.16-1.121-5.039-7.281L280.031,39.2c0.559-3.359,1.68-5.039,6.16-5.039h1.68l162.96,34.719
		c1.68,0.562,5.039,1.121,4.48,7.281 M619.392,325.921v-145.6c0-10.078-5.602-19.039-15.121-23.52l-57.121-26.32
		c-1.68-0.559-2.801-1.121-4.481-1.68l-57.121-14.559c-6.16-1.68-10.078-8.398-8.398-14.559l5.039-16.238l0.559-1.121
		c0.559-1.68,2.801-14.559-4.48-26.32c-3.359-5.039-9.52-11.762-21.84-14L293.477,7.281c-0.559,0-3.359-0.559-7.281-0.559
		c-16.801,0-29.68,10.078-33.602,26.879l-52.078,243.04c0,1.121-2.238,11.762,2.238,21.84l-106.96,37.52
		c-7.84,2.801-12.879,7.281-14,13.441c-1.121,4.48,1.121,9.52,5.602,12.879l97.441,81.762c5.039,4.48,14,6.719,22.398,6.719
		c5.039,0,9.52-0.559,14-2.238l226.24-79.52c7.84-2.801,12.879-7.281,14-13.441c1.121-4.48-1.121-9.52-5.602-12.879l-24.078-20.16
		l1.68-8.961c1.121-5.602,6.719-9.52,12.32-8.961c39.199,3.922,75.602,5.039,89.039,5.602c1.68,0,2.801,0.559,4.481,1.121
		l59.922,27.441c1.68,1.121,3.922,1.121,5.602,1.121c2.801,0,5.039-0.559,7.281-2.238c5.035-2.809,7.273-7.289,7.273-11.766"/>
</g>
</svg>
