<?xml version="1.0" encoding="utf-8"?>
<!-- Generator: Adobe Illustrator 17.0.2, SVG Export Plug-In . SVG Version: 6.00 Build 0)  -->
<!DOCTYPE svg PUBLIC "-//W3C//DTD SVG 1.1//EN" "http://www.w3.org/Graphics/SVG/1.1/DTD/svg11.dtd">
<svg version="1.1" id="Layer_1" xmlns="http://www.w3.org/2000/svg" xmlns:xlink="http://www.w3.org/1999/xlink" x="0px" y="0px"
	 width="700px" height="700px" viewBox="0 0 700 700" enable-background="new 0 0 700 700" xml:space="preserve">
<g>
	<path fill="#E2F903" d="M611.52,207.76c1.121-6.16-1.121-12.879-7.281-17.359l-132.16-110.88c-7.281-6.16-18.48-9.52-30.238-9.52
		c-6.719,0-12.879,1.121-19.039,2.801l-307.44,108.08c-10.641,3.922-17.359,10.078-18.48,17.922
		c-1.121,6.16,1.68,12.879,7.281,17.359l132.16,110.88c7.281,6.16,18.48,9.52,30.238,9.52c6.719,0,12.879-1.121,19.039-2.801
		l307.44-107.52c10.082-3.918,17.359-10.637,18.48-18.477 M620.481,234.081v-11.199c-5.039,7.281-12.32,12.879-22.398,16.801
		l-307.44,108.08c-7.281,2.801-15.68,3.922-24.078,3.922c-15.68,0-30.238-4.48-39.762-12.879l-132.16-110.88
		c-2.801-2.238-5.039-4.48-6.719-7.281v10.082c0,4.48,2.238,9.52,7.281,13.441l132.16,110.88c14,11.762,42.559,15.121,64.398,7.281
		l307.44-107.52C612.641,250.324,619.922,242.485,620.481,234.081 M620.48,263.203v-17.359c-0.559,7.84-7.84,16.238-21.281,20.719
		l-307.44,107.52c-21.84,7.84-50.398,4.48-64.398-7.281l-131.6-110.88c-5.039-4.48-7.281-8.961-7.281-13.441v-16.238v33.602
		c0,4.48,2.238,9.52,7.281,13.441l132.16,110.88c14,11.762,42.559,15.121,64.398,7.281l307.44-107.52
		c12.879-4.484,20.719-12.887,20.719-20.727 M620.478,291.762v3.922v-21.84c0,8.398-7.84,16.238-21.281,20.719l-307.44,108.64
		c-21.84,7.84-50.398,4.48-64.398-7.281l-131.6-110.88c-5.039-4.48-7.281-8.961-7.281-13.441v-11.762v29.121
		c0,4.48,2.238,9.52,7.281,13.441l132.16,110.88c14,11.762,42.559,15.121,64.398,7.281l307.44-107.52
		c13.438-5.039,20.719-12.879,20.719-21.277 M620.476,320.882v8.961v-26.879c0,8.398-7.84,16.238-21.281,21.281l-307.44,107.52
		c-21.84,7.84-50.398,4.48-64.398-7.281l-131.6-110.88c-5.039-3.922-7.281-8.961-7.281-13.441v-6.719v24.082
		c0,4.48,2.238,9.52,7.281,13.441l132.16,110.88c14,11.762,42.559,15.121,64.398,7.281l306.88-107.52
		c14-4.48,21.281-12.32,21.281-20.723 M620.476,344.967v-12.879c0,8.398-7.281,16.238-21.281,21.281l-307.44,107.52
		c-21.84,7.84-50.398,4.48-64.398-7.281l-131.6-110.88c-5.039-4.48-7.281-8.961-7.281-13.441v-2.238v15.121
		c0,4.48,2.238,9.52,7.281,13.441l132.16,110.88c14,11.762,42.559,15.121,64.398,7.281l307.44-107.52
		c13.438-5.043,20.719-13.441,20.719-21.281"/>
</g>
</svg>
