<?xml version="1.0" encoding="utf-8"?>
<!-- Generator: Adobe Illustrator 17.0.2, SVG Export Plug-In . SVG Version: 6.00 Build 0)  -->
<!DOCTYPE svg PUBLIC "-//W3C//DTD SVG 1.1//EN" "http://www.w3.org/Graphics/SVG/1.1/DTD/svg11.dtd">
<svg version="1.1" id="Layer_1" xmlns="http://www.w3.org/2000/svg" xmlns:xlink="http://www.w3.org/1999/xlink" x="0px" y="0px"
	 width="792px" height="612px" viewBox="0 0 792 612" enable-background="new 0 0 792 612" xml:space="preserve">
<g id="XMLID_1_">
	<g>
		<polygon fill="#00FF00" points="214,133 214,124 214,112 300,112 321,133 		"/>
		<polygon fill="#FFFFFF" points="214,133 321,133 346.5,133 613,133 639,151 639,488 214,488 		"/>
	</g>
	<g>
		<polyline fill="none" stroke="#00FF00" stroke-width="6" stroke-miterlimit="10" points="346.5,133 613,133 639,151 639,488 
			214,488 214,133 214,124 214,112 300,112 321,133 		"/>
		<polyline fill="none" stroke="#00FF00" stroke-width="6" stroke-miterlimit="10" points="214,133 321,133 346.5,133 		"/>
	</g>
</g>
<polygon fill="none" points="475,142 216,142 214,112 473,112 "/>
<text transform="matrix(1 0 0 1 214.4702 119.0601)"><tspan x="0" y="0" font-family="'SourceCodePro-Semibold'" font-size="10">TARGET: PETROL </tspan><tspan x="0.8" y="12" font-family="'SourceCodePro-Semibold'" font-size="10">INFRASTRUCTURE</tspan></text>
</svg>
